<?xml version="1.0" encoding="UTF-8" standalone="no"?>
<!-- Created with Inkscape (http://www.inkscape.org/) -->

<svg
   version="1.1"
   id="svg1"
   width="32"
   height="32"
   viewBox="0 0 32 32.000001"
   sodipodi:docname="tGtv2.svg"
   inkscape:version="1.4.2 (f4327f4, 2025-05-13)"
   xmlns:inkscape="http://www.inkscape.org/namespaces/inkscape"
   xmlns:sodipodi="http://sodipodi.sourceforge.net/DTD/sodipodi-0.dtd"
   xmlns="http://www.w3.org/2000/svg"
   xmlns:svg="http://www.w3.org/2000/svg">
  <defs
     id="defs1">
    <linearGradient
       id="linearGradient1"
       inkscape:swatch="gradient">
      <stop
         style="stop-color:#000000;stop-opacity:1;"
         offset="0"
         id="stop1" />
      <stop
         style="stop-color:#000000;stop-opacity:0;"
         offset="1"
         id="stop2" />
    </linearGradient>
  </defs>
  <sodipodi:namedview
     id="namedview1"
     pagecolor="#ffffff"
     bordercolor="#000000"
     borderopacity="0.25"
     inkscape:showpageshadow="2"
     inkscape:pageopacity="0.0"
     inkscape:pagecheckerboard="0"
     inkscape:deskcolor="#d1d1d1"
     inkscape:zoom="0.65968276"
     inkscape:cx="559.35977"
     inkscape:cy="238.75112"
     inkscape:window-width="1680"
     inkscape:window-height="987"
     inkscape:window-x="-8"
     inkscape:window-y="-8"
     inkscape:window-maximized="1"
     inkscape:current-layer="g1" />
  <g
     inkscape:groupmode="layer"
     inkscape:label="Image"
     id="g1">
    <path
       style="fill:#00df00;fill-opacity:1;stroke:none;stroke-width:0.185354;stroke-dasharray:none"
       d="M 9.5312251,28.757654 C 8.714152,28.531905 8.1119608,28.128449 6.4088105,26.665714 5.3543491,25.760099 5.0358077,25.399774 4.6705799,24.699482 4.2876921,23.965325 4.1813781,23.167352 4.3599136,22.367657 4.6670748,20.991833 5.4591078,19.823531 7.6553205,17.506717 8.5519703,16.560831 8.5617283,16.538328 8.4142384,15.756792 8.3650691,15.496241 8.2084545,15.232367 7.8641597,14.829992 7.4118076,14.301332 6.4455896,13.049191 3.949715,9.7572006 3.368089,8.9900523 2.7325646,8.1571616 2.537441,7.9063367 2.0542582,7.2852237 2.0073088,6.8631673 2.358947,6.3017243 3.02416,5.2396081 4.5208216,4.7591353 5.9666398,5.1435463 c 1.1006757,0.2926461 1.3268805,0.4702378 3.2056778,2.5167359 0.81653,0.8894124 1.5285294,1.617188 1.5822244,1.6172829 0.05369,9.27e-5 0.181904,-0.166557 0.284913,-0.3703305 0.199499,-0.3946491 0.748946,-1.1186816 1.766422,-2.327693 1.73167,-2.0576546 2.226982,-2.412608 3.260723,-2.3367169 0.880428,0.064636 1.471436,0.400458 1.845257,1.0485115 l 0.288045,0.4993529 h 0.566136 c 1.191134,0 2.243072,0.9412145 2.436081,2.1796667 0.03414,0.2190557 0.110909,0.381455 0.19329,0.4088912 0.463717,0.1544338 1.055136,0.5137679 1.337971,0.8129261 0.180407,0.1908131 0.354451,0.3469661 0.386766,0.3470119 0.03232,4.16e-5 0.663161,-0.6225703 1.401877,-1.3835816 1.18568,-1.2214682 1.396383,-1.4014476 1.797534,-1.5354392 0.601351,-0.2008584 1.306778,-0.1478856 1.84994,0.1389185 1.032539,0.5452101 1.34688,1.9816736 0.729753,3.3348023 -0.203477,0.44615 -0.582911,0.925436 -1.815596,2.293392 -0.8571,0.951153 -1.825994,2.043061 -2.153097,2.426459 -0.327105,0.383398 -0.614839,0.716702 -0.639413,0.740675 -0.02457,0.02398 -0.177466,0.22012 -0.33977,0.435882 -0.162302,0.215758 -0.361644,0.451136 -0.442984,0.523055 -0.08134,0.07191 -0.238815,0.390917 -0.349948,0.70888 -0.280081,0.801359 -0.734307,1.481142 -1.536591,2.299624 -0.789082,0.805011 -1.629826,1.442734 -2.307368,1.750184 -0.88739,0.402669 -2.319535,1.771791 -4.369137,4.176862 -1.360155,1.596056 -2.263306,2.534939 -2.771768,2.881438 -0.767462,0.522998 -1.731685,0.678932 -2.6423529,0.427318 z M 11.02701,27.807072 c 0.250282,-0.06836 0.598734,-0.226437 0.774337,-0.351306 0.332265,-0.236257 1.505922,-1.495496 2.891272,-3.102102 0.443927,-0.514825 1.236405,-1.405042 1.761066,-1.978259 0.524657,-0.573215 0.929288,-1.067486 0.899181,-1.098378 -0.03011,-0.03089 -0.120745,-0.05618 -0.201416,-0.05618 -0.169749,0 -0.284149,-0.229468 -0.155176,-0.311257 0.108865,-0.06905 1.346654,-0.383422 1.51964,-0.385975 0.247068,-0.0036 0.983797,-0.414356 1.566033,-0.873028 1.389461,-1.094582 2.135008,-2.169794 2.356699,-3.398779 0.128225,-0.71084 0.285577,-1.046113 0.490965,-1.046113 0.09584,0 0.17426,0.04249 0.17426,0.09444 0,0.168062 0.127908,0.04994 0.810279,-0.74826 0.791669,-0.92606 2.168055,-2.472938 3.187147,-3.581936 0.785265,-0.854542 0.97171,-1.1708376 1.100315,-1.8666431 0.11036,-0.5970988 -0.0068,-1.1199817 -0.305972,-1.3650517 -0.285472,-0.2338809 -0.883699,-0.3334518 -1.252683,-0.2085037 -0.377263,0.1277525 -2.210959,2.0402551 -4.51615,4.7102445 -2.12289,2.458835 -3.399168,3.785923 -3.72057,3.868691 -0.679152,0.1749 -1.661757,-0.499466 -2.207101,-1.514742 -0.130001,-0.242026 -0.181518,-0.271569 -0.38233,-0.219249 -0.90893,0.236806 -1.428548,0.08854 -2.008302,-0.573108 -0.467783,-0.533843 -0.59526,-0.907626 -0.536457,-1.572988 0.04394,-0.497285 0.03919,-0.512074 -0.180489,-0.561021 -0.464604,-0.103507 -0.677287,-0.231763 -1.07996,-0.651236 C 11.569454,10.555744 11.460675,10.510228 11.294134,10.716129 11.121789,10.9292 10.830414,10.867851 10.569562,10.56357 10.435973,10.407752 9.5494897,9.4526326 8.5995947,8.4410906 6.7232271,6.4429455 6.4254065,6.2164699 5.4742273,6.0644456 4.5699134,5.9199116 3.6567099,6.1923602 3.276456,6.7201395 3.0825299,6.9892996 3.1243673,7.1031459 3.7052364,7.8869056 c 1.0586538,1.4284353 4.342055,5.6587634 5.0759406,6.5398364 0.653513,0.784583 0.8438696,1.076508 0.9529078,1.461359 0.2403988,0.848491 1.1029242,1.615877 2.1224692,1.888355 0.903865,0.241562 1.619337,0.146701 2.265375,-0.300359 0.460952,-0.318982 0.825574,-0.385656 0.825574,-0.15097 0,0.138803 -0.334265,0.400026 -0.900883,0.704021 -1.206966,0.647551 -2.958615,0.233602 -4.010996,-0.947876 -0.4562378,-0.512202 -0.5256952,-0.558087 -0.5256952,-0.347265 0,0.07342 -0.5973039,0.779054 -1.3273406,1.568082 -2.0266406,2.190403 -2.6320978,3.099421 -2.8425994,4.267796 -0.2635449,1.462801 0.3133579,2.360633 2.702021,4.205145 0.7699668,0.594564 1.1763585,0.846717 1.5717984,0.975247 0.6457478,0.209887 0.8260998,0.217134 1.4132018,0.05678 z m -0.497537,-1.415881 c -0.52098,-0.203145 -0.5527396,-0.633696 -0.0892,-1.20926 0.184586,-0.229195 0.347074,-0.51788 0.361089,-0.641521 0.02032,-0.179303 0.07755,-0.230037 0.282769,-0.250676 0.141509,-0.01425 0.40914,0.02621 0.594736,0.08987 0.259977,0.08917 0.331329,0.155149 0.310806,0.287404 -0.01465,0.09441 -0.0236,0.279541 -0.01989,0.411393 0.0063,0.221127 -0.01859,0.239736 -0.319642,0.239736 -0.452847,0 -0.715439,0.290588 -0.679598,0.752056 0.02207,0.28424 -6.91e-4,0.34026 -0.143702,0.354169 -0.09346,0.0092 -0.227273,-0.0059 -0.297368,-0.03317 z M 9.2939549,25.293251 C 8.5396612,24.832908 8.235495,24.396946 8.235495,23.776159 c 0,-0.369796 0.043945,-0.484368 0.3064967,-0.799093 0.3303718,-0.396025 0.8420977,-0.710095 1.1569747,-0.710095 0.4667406,0 1.5102046,0.818232 1.5102046,1.184223 0,0.114555 -0.117891,0.282164 -0.297132,0.42244 -0.291153,0.227861 -0.301385,0.229386 -0.50852,0.07572 -0.166934,-0.12383 -0.201138,-0.207978 -0.162645,-0.400113 0.05341,-0.266568 -0.08063,-0.497693 -0.2886226,-0.497693 -0.072381,0 -0.2992983,0.17958 -0.5042597,0.39906 -0.3050873,0.326705 -0.3679184,0.449208 -0.3465253,0.675616 0.019797,0.2095 0.067333,0.276552 0.196056,0.276552 0.1287596,0 0.1762615,-0.06705 0.1960755,-0.276829 0.047784,-0.505817 0.2220978,-0.532814 0.6750251,-0.104541 0.432367,0.408834 0.505765,0.620623 0.233407,0.673519 -0.09346,0.01816 -0.33156,0.185413 -0.5291153,0.37169 -0.1975553,0.186285 -0.3696038,0.337305 -0.3823291,0.335606 -0.012727,-0.0017 -0.1012089,-0.05073 -0.1966307,-0.10897 z m -2.1629667,-1.89299 c -0.2417389,-0.24804 -0.2120522,-0.455909 0.12664,-0.886778 0.2937251,-0.373664 0.4064086,-0.572177 0.5054566,-0.890464 0.044355,-0.142529 0.1088496,-0.157475 0.4832001,-0.111984 0.4919151,0.05978 0.7034874,0.196302 0.6189646,0.399404 -0.031722,0.07623 -0.051876,0.24775 -0.044788,0.381165 0.012057,0.226901 -0.0071,0.241191 -0.296613,0.221187 -0.2542919,-0.01757 -0.3454321,0.02468 -0.5109124,0.236895 -0.1185778,0.152064 -0.2015809,0.374799 -0.2018279,0.541605 -4.592e-4,0.256589 -0.024472,0.283322 -0.2553084,0.283322 -0.141604,0 -0.3304087,-0.0775 -0.4248116,-0.174352 z M 18.708819,15.394006 c 0.129463,-0.08758 0.301512,-0.235302 0.382331,-0.328244 0.605058,-0.69583 1.312812,-1.542478 1.59509,-1.908119 0.18483,-0.239418 0.605209,-0.7704 0.934171,-1.17996 0.94489,-1.176394 0.994509,-1.481062 0.349063,-2.143325 -0.393042,-0.4032836 -0.777198,-0.5297482 -1.302221,-0.4286873 -0.357838,0.068888 -0.546693,0.2526842 -1.848369,1.7989313 -0.137104,0.162867 -0.665015,0.775442 -1.173135,1.361278 -1.039886,1.198937 -1.149934,1.454056 -0.844929,1.958706 0.192071,0.317791 0.642761,0.778689 0.907955,0.928519 0.259485,0.146605 0.737786,0.118338 1.000044,-0.05911 z M 16.265832,13.26604 c 0.423496,-0.44351 1.097289,-1.198671 1.497316,-1.67814 0.400027,-0.479469 1.09634,-1.283668 1.547366,-1.78711 C 20.277321,8.7216195 20.401327,8.4415117 20.177957,7.8413804 19.802096,6.8315532 18.724658,6.4477743 18.006416,7.0678847 17.863627,7.1911632 17.395602,7.709389 16.96636,8.219499 16.537116,8.7296071 15.877208,9.5000336 15.499901,9.9315531 13.82052,11.852218 13.627318,12.150032 13.699999,12.706036 c 0.07321,0.560086 0.471039,0.997281 1.124977,1.236305 0.184212,0.06733 0.410518,0.124148 0.502898,0.12625 0.102616,0.0023 0.467531,-0.309897 0.937958,-0.802551 z M 14.10821,10.868696 c 0.212444,-0.227748 0.784504,-0.9203935 1.271237,-1.5392153 0.486734,-0.6188211 1.123928,-1.4168624 1.415986,-1.7734235 0.454957,-0.5554425 0.531012,-0.6975744 0.531012,-0.992365 0,-0.8233484 -0.594956,-1.376408 -1.486836,-1.3821365 l -0.424811,-0.00273 -0.89958,0.9465516 c -1.150232,1.210295 -2.339383,2.6584124 -2.561373,3.1191695 -0.319153,0.6624358 0.02877,1.3740432 0.886154,1.8124292 0.636636,0.325515 0.813415,0.299269 1.268211,-0.188282 z"
       id="path1"
       sodipodi:nodetypes="sssssssssssscsssscsssssssssssssssssssssssssssssssssssssssssssssssssssssssssssssssscsssssssssccsssssssssssssssscsssssssscssssssssssssssssssssssssssssscsssss" />
  </g>
</svg>
